STARTFONT 2.1
COMMENT This font was automatically resized by bdfresize-1.4
COMMENT   mag_x = 2/3, mag_y = 2/3, blackness = 4
COMMENT This font image is originally translated from Metafont "dvng10"
COMMENT from devnagri package.
COMMENT DPI was ``147'', usermag ``1000'', blackness ``3''
COMMENT shrink was 1
FONT -Misc-Fixed-Medium-R-Normal--16-160-72-72-C-80-iso10646.indian-1
SIZE 16 72 72
FONTBOUNDINGBOX 16 18 0 -3
STARTPROPERTIES 22
FOUNDRY "Misc"
FAMILY_NAME "Fixed"
WEIGHT_NAME "Medium"
SLANT "R"
SETWIDTH_NAME "Normal"
ADD_STYLE_NAME ""
PIXEL_SIZE 16
POINT_SIZE 160
RESOLUTION_X 72
RESOLUTION_Y 72
SPACING "C"
AVERAGE_WIDTH 160
CHARSET_REGISTRY "iso10646.indian"
CHARSET_ENCODING "1"
STRIKEOUT_ASCENT 22
STRIKEOUT_DESCENT 5
X_HEIGHT 10
FACE_NAME "Indian"
COPYRIGHT "Public domain"
FONT_ASCENT 15
FONT_DESCENT 3
DEFAULT_CHAR 2304
ENDPROPERTIES
CHARS 105
STARTCHAR c900
ENCODING 2304
SWIDTH 667 0
DWIDTH 16 0
BBX 16 18 0 -3
BITMAP
0000
0000
0000
0000
0000
0000
0000
0000
0000
0000
0000
0000
0000
0000
0000
0000
0000
0000
ENDCHAR
STARTCHAR c901
ENCODING 2305
SWIDTH 667 0
DWIDTH 16 0
BBX 16 18 0 -3
BITMAP
0000
0054
003C
003C
0018
0000
0000
0000
0000
0000
0000
0000
0000
0000
0000
0000
0000
0000
ENDCHAR
STARTCHAR U+0902
ENCODING 2306
SWIDTH 667 0
DWIDTH 16 0
BBX 16 18 0 -3
BITMAP
0000
0000
000C
000C
0000
0000
0000
0000
0000
0000
0000
0000
0000
0000
0000
0000
0000
0000
ENDCHAR
STARTCHAR U+0903
ENCODING 2307
SWIDTH 667 0
DWIDTH 16 0
BBX 16 18 0 -3
BITMAP
0000
0000
0000
0000
0000
7FFE
7FFE
0000
0800
0800
0000
0800
1800
0000
0000
0000
0000
0000
ENDCHAR
STARTCHAR U+0905
ENCODING 2309
SWIDTH 667 0
DWIDTH 16 0
BBX 16 18 0 -3
BITMAP
0000
0000
0000
0000
0000
19FE
7DFF
2660
1E60
5EE0
63E0
2760
1E60
0C60
0020
0000
0000
0000
ENDCHAR
STARTCHAR U+0906
ENCODING 2310
SWIDTH 667 0
DWIDTH 16 0
BBX 16 18 0 -3
BITMAP
0000
0000
0000
0000
0000
19FE
7DFF
2666
1E66
5EE6
63E6
2766
1E66
0C66
0022
0000
0000
0000
ENDCHAR
STARTCHAR c907
ENCODING 2311
SWIDTH 667 0
DWIDTH 16 0
BBX 16 18 0 -3
BITMAP
0000
0000
0000
0000
0000
FFFE
7FFF
0780
0F80
0F00
0780
07C0
0F80
0780
00C0
0000
0000
0000
ENDCHAR
STARTCHAR c908
ENCODING 2312
SWIDTH 667 0
DWIDTH 16 0
BBX 16 18 0 -3
BITMAP
0000
0000
0380
03C0
0100
FFFE
7FFF
0780
0F80
0F00
0780
07C0
0F80
0780
00C0
0000
0000
0000
ENDCHAR
STARTCHAR U+0909
ENCODING 2313
SWIDTH 667 0
DWIDTH 16 0
BBX 16 18 0 -3
BITMAP
0000
0000
0000
0000
0000
FFFE
7FFF
0060
03E0
03C0
0C40
0460
03E0
01C0
0000
0000
0000
0000
ENDCHAR
STARTCHAR U+090a
ENCODING 2314
SWIDTH 667 0
DWIDTH 16 0
BBX 16 18 0 -3
BITMAP
0000
0000
0000
0000
0000
FFFE
7FFF
0180
0F80
0F60
31F0
1198
0FB8
0730
0000
0000
0000
0000
ENDCHAR
STARTCHAR c90b
ENCODING 2315
SWIDTH 667 0
DWIDTH 16 0
BBX 16 18 0 -3
BITMAP
0000
0000
0000
0000
0000
FFFE
7FFF
1B00
3F70
03F0
0FB0
1F38
1B60
0338
011C
0000
0000
0000
ENDCHAR
STARTCHAR U+090c
ENCODING 2316
SWIDTH 667 0
DWIDTH 16 0
BBX 16 18 0 -3
BITMAP
0000
0000
0000
0000
0000
FFFE
7FFF
0060
1CE0
3FF0
3118
1038
18F0
08C0
04F0
0070
0000
0000
ENDCHAR
STARTCHAR U+090d
ENCODING 2317
SWIDTH 667 0
DWIDTH 16 0
BBX 16 18 0 -3
BITMAP
0000
0440
02C0
03C0
0180
FFFE
7FFF
0CC0
0CC0
0CC0
0CC0
0CC0
0600
0100
00C0
0060
0030
0060
ENDCHAR
STARTCHAR U+090e
ENCODING 2318
SWIDTH 667 0
DWIDTH 16 0
BBX 16 18 0 -3
BITMAP
0000
1800
0F00
0780
00C0
FFFE
7FFF
0CC0
0CC0
0CC0
0CC0
0CC0
0600
0100
00C0
0060
0030
0060
ENDCHAR
STARTCHAR U+090f
ENCODING 2319
SWIDTH 667 0
DWIDTH 16 0
BBX 16 18 0 -3
BITMAP
0000
0000
0000
0000
0000
FFFE
7FFF
0CC0
0CC0
0CC0
0CC0
0CC0
0600
0100
00C0
0060
0030
0060
ENDCHAR
STARTCHAR U+0910
ENCODING 2320
SWIDTH 667 0
DWIDTH 16 0
BBX 16 18 0 -3
BITMAP
0000
0C00
0700
0180
00C0
FFFE
7FFF
0CC0
0CC0
0CC0
0CC0
0CC0
0600
0100
00C0
0060
0030
0060
ENDCHAR
STARTCHAR U+0911
ENCODING 2321
SWIDTH 667 0
DWIDTH 16 0
BBX 16 18 0 -3
BITMAP
0000
0026
0036
001E
000C
19FE
7DFF
2666
1E66
5EE6
63E6
2766
1E66
0C66
0022
0000
0000
0000
ENDCHAR
STARTCHAR U+0912
ENCODING 2322
SWIDTH 667 0
DWIDTH 16 0
BBX 16 18 0 -3
BITMAP
0000
0180
00F0
0078
000C
19FE
7DFF
2666
1E66
5EE6
63E6
2766
1E66
0C66
0022
0000
0000
0000
ENDCHAR
STARTCHAR U+0913
ENCODING 2323
SWIDTH 667 0
DWIDTH 16 0
BBX 16 18 0 -3
BITMAP
0000
00C0
0070
0018
000C
19FE
7DFF
2666
1E66
5EE6
63E6
2766
1E66
0C66
0022
0000
0000
0000
ENDCHAR
STARTCHAR U+0914
ENCODING 2324
SWIDTH 667 0
DWIDTH 16 0
BBX 16 18 0 -3
BITMAP
0020
0030
00C8
00FC
001C
19FE
7DFF
2666
1E66
5EE6
63E6
2766
1E66
0C66
0022
0000
0000
0000
ENDCHAR
STARTCHAR c915
ENCODING 2325
SWIDTH 667 0
DWIDTH 16 0
BBX 16 18 0 -3
BITMAP
0000
0000
0000
0000
0000
FFFE
7FFF
0F00
1FE0
1BF0
1F30
0F30
0330
0330
0100
0000
0000
0000
ENDCHAR
STARTCHAR c916
ENCODING 2326
SWIDTH 667 0
DWIDTH 16 0
BBX 16 18 0 -3
BITMAP
0000
0000
0000
0000
0000
FFFE
7FFF
0630
0FF0
0FF0
0DF0
04F0
0630
0230
0010
0000
0000
0000
ENDCHAR
STARTCHAR c917
ENCODING 2327
SWIDTH 667 0
DWIDTH 16 0
BBX 16 18 0 -3
BITMAP
0000
0000
0000
0000
0000
FFFE
7FFF
0660
0660
0E60
0E60
0E60
0060
0060
0020
0000
0000
0000
ENDCHAR
STARTCHAR U+0918
ENCODING 2328
SWIDTH 667 0
DWIDTH 16 0
BBX 16 18 0 -3
BITMAP
0000
0000
0000
0000
0000
FFFE
7FFF
0C60
0760
0F60
07E0
03E0
0060
0060
0020
0000
0000
0000
ENDCHAR
STARTCHAR U+0919
ENCODING 2329
SWIDTH 667 0
DWIDTH 16 0
BBX 16 18 0 -3
BITMAP
0000
0000
0000
0000
0000
FFFE
7FFF
07C0
0F80
07B0
13C0
08C0
0780
0300
0000
0000
0000
0000
ENDCHAR
STARTCHAR U+091a
ENCODING 2330
SWIDTH 667 0
DWIDTH 16 0
BBX 16 18 0 -3
BITMAP
0000
0000
0000
0000
0000
FFFE
7FFF
0060
1FE0
0FE0
07E0
03E0
0060
0060
0020
0000
0000
0000
ENDCHAR
STARTCHAR U+091b
ENCODING 2331
SWIDTH 667 0
DWIDTH 16 0
BBX 16 18 0 -3
BITMAP
0000
0000
0000
0000
0000
FFFE
7FFF
1E60
3EF0
10F0
0F70
0F30
0CF0
0FC8
079C
0018
0000
0000
ENDCHAR
STARTCHAR c91c
ENCODING 2332
SWIDTH 667 0
DWIDTH 16 0
BBX 16 18 0 -3
BITMAP
0000
0000
0000
0000
0000
FFFE
7FFF
0030
13F0
09F0
0CB0
04F0
03B0
0130
0010
0000
0000
0000
ENDCHAR
STARTCHAR U+091d
ENCODING 2333
SWIDTH 667 0
DWIDTH 16 0
BBX 16 18 0 -3
BITMAP
0000
0000
0000
0000
0000
FFFE
7FFF
0F30
1F30
0E70
07F0
0DF0
1F30
0F30
0190
0000
0000
0000
ENDCHAR
STARTCHAR U+091e
ENCODING 2334
SWIDTH 667 0
DWIDTH 16 0
BBX 16 18 0 -3
BITMAP
0000
0000
0000
0000
0000
FFFE
7FFF
0030
0630
03F0
0BF0
0F30
0630
0030
0000
0000
0000
0000
ENDCHAR
STARTCHAR U+091f
ENCODING 2335
SWIDTH 667 0
DWIDTH 16 0
BBX 16 18 0 -3
BITMAP
0000
0000
0000
0000
0000
FFFE
7FFF
00C0
03C0
07C0
0C00
0C00
07F0
03E0
0000
0000
0000
0000
ENDCHAR
STARTCHAR U+0920
ENCODING 2336
SWIDTH 667 0
DWIDTH 16 0
BBX 16 18 0 -3
BITMAP
0000
0000
0000
0000
0000
FFFE
7FFF
00C0
07C0
0FC0
0C20
0C30
07E0
03C0
0000
0000
0000
0000
ENDCHAR
STARTCHAR c921
ENCODING 2337
SWIDTH 667 0
DWIDTH 16 0
BBX 16 18 0 -3
BITMAP
0000
0000
0000
0000
0000
FFFE
7FFF
01E0
03E0
03C0
0DE0
0470
03E0
01C0
0000
0000
0000
0000
ENDCHAR
STARTCHAR c922
ENCODING 2338
SWIDTH 667 0
DWIDTH 16 0
BBX 16 18 0 -3
BITMAP
0000
0000
0000
0000
0000
FFFE
7FFF
03C0
07C0
0C00
0CC0
05E0
03F0
01E0
0000
0000
0000
0000
ENDCHAR
STARTCHAR U+0923
ENCODING 2339
SWIDTH 667 0
DWIDTH 16 0
BBX 16 18 0 -3
BITMAP
0000
0000
0000
0000
0000
FFFE
7FFF
0DB0
0DB0
0DB0
07B0
0330
0030
0030
0000
0000
0000
0000
ENDCHAR
STARTCHAR U+0924
ENCODING 2340
SWIDTH 667 0
DWIDTH 16 0
BBX 16 18 0 -3
BITMAP
0000
0000
0000
0000
0000
FFFE
7FFF
0060
07E0
0FE0
0C60
0460
0660
0260
0120
0000
0000
0000
ENDCHAR
STARTCHAR U+0925
ENCODING 2341
SWIDTH 667 0
DWIDTH 16 0
BBX 16 18 0 -3
BITMAP
0000
0000
0000
0000
0000
06FE
0F7F
0F30
0730
0F30
07F0
03F0
0030
0030
0000
0000
0000
0000
ENDCHAR
STARTCHAR U+0926
ENCODING 2342
SWIDTH 667 0
DWIDTH 16 0
BBX 16 18 0 -3
BITMAP
0000
0000
0000
0000
0000
FFFE
7FFF
03E0
07E0
0600
06C0
03E0
01E0
0020
0000
0000
0000
0000
ENDCHAR
STARTCHAR U+0927
ENCODING 2343
SWIDTH 667 0
DWIDTH 16 0
BBX 16 18 0 -3
BITMAP
0000
0000
0000
0000
0000
01FE
0CFF
0C60
0760
0F60
07E0
03E0
0060
0060
0020
0000
0000
0000
ENDCHAR
STARTCHAR U+0928
ENCODING 2344
SWIDTH 667 0
DWIDTH 16 0
BBX 16 18 0 -3
BITMAP
0000
0000
0000
0000
0000
FFFE
7FFF
0060
03E0
07E0
0660
0060
0060
0060
0020
0000
0000
0000
ENDCHAR
STARTCHAR U+0929
ENCODING 2345
SWIDTH 667 0
DWIDTH 16 0
BBX 16 18 0 -3
BITMAP
0000
0000
0000
0000
0000
FFFE
7FFF
0060
03E0
07E0
0660
0060
0060
0060
0320
0000
0000
0000
ENDCHAR
STARTCHAR U+092a
ENCODING 2346
SWIDTH 667 0
DWIDTH 16 0
BBX 16 18 0 -3
BITMAP
0000
0000
0000
0000
0000
FFFE
7FFF
0660
0660
0260
01E0
00E0
0060
0060
0020
0000
0000
0000
ENDCHAR
STARTCHAR c92b
ENCODING 2347
SWIDTH 667 0
DWIDTH 16 0
BBX 16 18 0 -3
BITMAP
0000
0000
0000
0000
0000
FFFE
7FFF
1980
19F0
09F8
0798
0398
01B0
0190
0080
0000
0000
0000
ENDCHAR
STARTCHAR U+092c
ENCODING 2348
SWIDTH 667 0
DWIDTH 16 0
BBX 16 18 0 -3
BITMAP
0000
0000
0000
0000
0000
FFFE
7FFF
03E0
07E0
0F60
05E0
03E0
01E0
0060
0020
0000
0000
0000
ENDCHAR
STARTCHAR U+092d
ENCODING 2349
SWIDTH 667 0
DWIDTH 16 0
BBX 16 18 0 -3
BITMAP
0000
0000
0000
0000
0000
19FE
0CFF
0660
0660
0FE0
0FE0
0660
0060
0060
0020
0000
0000
0000
ENDCHAR
STARTCHAR U+092e
ENCODING 2350
SWIDTH 667 0
DWIDTH 16 0
BBX 16 18 0 -3
BITMAP
0000
0000
0000
0000
0000
FFFE
7FFF
0630
0630
0FF0
0FF0
0E30
0030
0030
0000
0000
0000
0000
ENDCHAR
STARTCHAR U+092f
ENCODING 2351
SWIDTH 667 0
DWIDTH 16 0
BBX 16 18 0 -3
BITMAP
0000
0000
0000
0000
0000
FFFE
7FFF
0360
0E60
0C60
07E0
03E0
0060
0060
0020
0000
0000
0000
ENDCHAR
STARTCHAR U+0930
ENCODING 2352
SWIDTH 667 0
DWIDTH 16 0
BBX 16 18 0 -3
BITMAP
0000
0000
0000
0000
0000
FFFE
7FFF
0300
0700
0700
0300
0300
0100
00C0
0060
0000
0000
0000
ENDCHAR
STARTCHAR U+0931
ENCODING 2353
SWIDTH 667 0
DWIDTH 16 0
BBX 16 18 0 -3
BITMAP
0000
0000
0000
0000
0000
FFFE
7FFF
0300
0700
0700
0300
0300
0100
00C0
0060
0180
0100
0000
ENDCHAR
STARTCHAR U+0932
ENCODING 2354
SWIDTH 667 0
DWIDTH 16 0
BBX 16 18 0 -3
BITMAP
0000
0000
0000
0000
0000
FFFE
7FFF
0030
0F70
0FF0
0CF0
0C30
0430
0230
0010
0000
0000
0000
ENDCHAR
STARTCHAR U+0933
ENCODING 2355
SWIDTH 667 0
DWIDTH 16 0
BBX 16 18 0 -3
BITMAP
0000
0000
0000
0000
0000
FFFE
7FFF
00C0
0CE0
1FF0
3398
3318
1FF8
0FF0
0000
0000
0000
0000
ENDCHAR
STARTCHAR U+0934
ENCODING 2356
SWIDTH 667 0
DWIDTH 16 0
BBX 16 18 0 -3
BITMAP
0000
0000
0000
0000
0000
FFFE
7FFF
00C0
0CE0
1FF0
3398
3318
1FF8
0FF0
0000
0180
0100
0000
ENDCHAR
STARTCHAR U+0935
ENCODING 2357
SWIDTH 667 0
DWIDTH 16 0
BBX 16 18 0 -3
BITMAP
0000
0000
0000
0000
0000
FFFE
7FFF
03E0
07E0
0C60
0460
03E0
01E0
0060
0020
0000
0000
0000
ENDCHAR
STARTCHAR U+0936
ENCODING 2358
SWIDTH 667 0
DWIDTH 16 0
BBX 16 18 0 -3
BITMAP
0000
0000
0000
0000
0000
FFFE
7FFF
0CF0
04F0
03F0
0FF0
0FB0
0730
00B0
0010
0000
0000
0000
ENDCHAR
STARTCHAR U+0937
ENCODING 2359
SWIDTH 667 0
DWIDTH 16 0
BBX 16 18 0 -3
BITMAP
0000
0000
0000
0000
0000
FFFE
7FFF
0760
07E0
02E0
01E0
00E0
0060
0060
0020
0000
0000
0000
ENDCHAR
STARTCHAR U+0938
ENCODING 2360
SWIDTH 667 0
DWIDTH 16 0
BBX 16 18 0 -3
BITMAP
0000
0000
0000
0000
0000
FFFE
7FFF
0730
0E30
0FF0
0DF0
0430
0630
0230
0100
0000
0000
0000
ENDCHAR
STARTCHAR U+0939
ENCODING 2361
SWIDTH 667 0
DWIDTH 16 0
BBX 16 18 0 -3
BITMAP
0000
0000
0000
0000
0000
FFFE
7FFF
07C0
0FC0
0C00
07C0
07E0
0CF0
04E0
0300
01E0
0060
0000
ENDCHAR
STARTCHAR U+093c
ENCODING 2364
SWIDTH 667 0
DWIDTH 16 0
BBX 16 18 0 -3
BITMAP
0000
0000
0000
0000
0000
0000
0000
0000
0000
0000
0000
0000
0000
0000
0000
0080
0180
0000
ENDCHAR
STARTCHAR c93d
ENCODING 2365
SWIDTH 667 0
DWIDTH 16 0
BBX 16 18 0 -3
BITMAP
0000
0000
0000
0000
0000
03E0
07E0
0600
0600
0300
0D80
0CC0
04C0
03C0
0180
0000
0000
0000
ENDCHAR
STARTCHAR U+093e
ENCODING 2366
SWIDTH 667 0
DWIDTH 16 0
BBX 16 18 0 -3
BITMAP
0000
0000
0000
0000
0000
1F00
1F80
0C00
0C00
0C00
0C00
0C00
0C00
0C00
0000
0000
0000
0000
ENDCHAR
STARTCHAR c93f
ENCODING 2367
SWIDTH 667 0
DWIDTH 16 0
BBX 16 18 0 -3
BITMAP
0000
0700
0FC0
0C60
0C00
1F00
1F80
0C00
0C00
0C00
0C00
0C00
0C00
0C00
0000
0000
0000
0000
ENDCHAR
STARTCHAR U+0940
ENCODING 2368
SWIDTH 667 0
DWIDTH 16 0
BBX 16 18 0 -3
BITMAP
0000
7000
F800
C400
0600
07C0
07E0
0300
0300
0300
0300
0300
0300
0300
0000
0000
0000
0000
ENDCHAR
STARTCHAR U+0941
ENCODING 2369
SWIDTH 667 0
DWIDTH 16 0
BBX 16 18 0 -3
BITMAP
0000
0000
0000
0000
0000
0000
0000
0000
0000
0000
0000
0000
0000
0000
01B8
00FC
007C
003C
ENDCHAR
STARTCHAR U+0942
ENCODING 2370
SWIDTH 667 0
DWIDTH 16 0
BBX 16 18 0 -3
BITMAP
0000
0000
0000
0000
0000
0000
0000
0000
0000
0000
0000
0000
0000
0000
00F0
00F8
00EC
0064
ENDCHAR
STARTCHAR c943
ENCODING 2371
SWIDTH 667 0
DWIDTH 16 0
BBX 16 18 0 -3
BITMAP
0000
0000
0000
0000
0000
0000
0000
0000
0000
0000
0000
0000
0000
0000
01C0
03C0
01E0
00F0
ENDCHAR
STARTCHAR U+0944
ENCODING 2372
SWIDTH 667 0
DWIDTH 16 0
BBX 16 18 0 -3
BITMAP
0000
0000
0000
0000
0000
0000
0000
0000
0000
0000
0000
0000
0100
0780
0600
03C0
03C0
03E0
ENDCHAR
STARTCHAR U+0945
ENCODING 2373
SWIDTH 667 0
DWIDTH 16 0
BBX 16 18 0 -3
BITMAP
0000
0440
02C0
03C0
0180
0000
0000
0000
0000
0000
0000
0000
0000
0000
0000
0000
0000
0000
ENDCHAR
STARTCHAR U+0946
ENCODING 2374
SWIDTH 667 0
DWIDTH 16 0
BBX 16 18 0 -3
BITMAP
0000
1800
0F00
0780
00C0
0040
0000
0000
0000
0000
0000
0000
0000
0000
0000
0000
0000
0000
ENDCHAR
STARTCHAR U+0947
ENCODING 2375
SWIDTH 667 0
DWIDTH 16 0
BBX 16 18 0 -3
BITMAP
0000
0C00
0700
0180
00C0
0040
0000
0000
0000
0000
0000
0000
0000
0000
0000
0000
0000
0000
ENDCHAR
STARTCHAR U+0948
ENCODING 2376
SWIDTH 667 0
DWIDTH 16 0
BBX 16 18 0 -3
BITMAP
0200
0300
0680
07C0
00C0
0000
0000
0000
0000
0000
0000
0000
0000
0000
0000
0000
0000
0000
ENDCHAR
STARTCHAR U+0949
ENCODING 2377
SWIDTH 667 0
DWIDTH 16 0
BBX 16 18 0 -3
BITMAP
0000
0080
04C0
03C0
0180
01F0
01F8
00C0
00C0
00C0
00C0
00C0
00C0
00C0
0000
0000
0000
0000
ENDCHAR
STARTCHAR U+094a
ENCODING 2378
SWIDTH 667 0
DWIDTH 16 0
BBX 16 18 0 -3
BITMAP
0000
3000
1E00
0F00
0180
01F0
01F8
00C0
00C0
00C0
00C0
00C0
00C0
00C0
0000
0000
0000
0000
ENDCHAR
STARTCHAR c94b
ENCODING 2379
SWIDTH 667 0
DWIDTH 16 0
BBX 16 18 0 -3
BITMAP
0000
1800
1C00
0200
0100
01F0
01F8
00C0
00C0
00C0
00C0
00C0
00C0
00C0
0000
0000
0000
0000
ENDCHAR
STARTCHAR U+094c
ENCODING 2380
SWIDTH 667 0
DWIDTH 16 0
BBX 16 18 0 -3
BITMAP
0C00
0E00
1900
1F80
0380
01F0
01F8
00C0
00C0
00C0
00C0
00C0
00C0
00C0
0000
0000
0000
0000
ENDCHAR
STARTCHAR U+094d
ENCODING 2381
SWIDTH 667 0
DWIDTH 16 0
BBX 16 18 0 -3
BITMAP
0000
0000
0000
0000
0000
0000
0000
0000
0000
0000
0000
0000
0000
0000
0300
0380
0040
0000
ENDCHAR
STARTCHAR U+0950
ENCODING 2384
SWIDTH 667 0
DWIDTH 16 0
BBX 16 18 0 -3
BITMAP
0000
0000
0000
0000
0020
0120
3C8C
3E7C
0338
0700
1FF0
0DF8
319C
1FBC
0710
0000
0000
0000
ENDCHAR
STARTCHAR c951
ENCODING 2385
SWIDTH 667 0
DWIDTH 16 0
BBX 16 18 0 -3
BITMAP
0380
0380
0180
0100
0100
0000
0000
0000
0000
0000
0000
0000
0000
0000
0000
0000
0000
0000
ENDCHAR
STARTCHAR U+0952
ENCODING 2386
SWIDTH 667 0
DWIDTH 16 0
BBX 16 18 0 -3
BITMAP
0000
0000
0000
0000
0000
0000
0000
0000
0000
0000
0000
0000
0000
0000
0000
0000
7FFE
FFFF
ENDCHAR
STARTCHAR c953
ENCODING 2387
SWIDTH 667 0
DWIDTH 16 0
BBX 16 18 0 -3
BITMAP
0000
0000
0000
0000
0000
0000
0000
0000
0000
0000
0000
0000
0000
0000
0000
0000
0000
0000
ENDCHAR
STARTCHAR c954
ENCODING 2388
SWIDTH 667 0
DWIDTH 16 0
BBX 16 18 0 -3
BITMAP
0000
0000
0000
0000
0000
0000
0000
0000
0000
0000
0000
0000
0000
0000
0000
0000
0000
0000
ENDCHAR
STARTCHAR U+0958
ENCODING 2392
SWIDTH 667 0
DWIDTH 16 0
BBX 16 18 0 -3
BITMAP
0000
0000
0000
0000
0000
FFFE
7FFF
0F00
1FE0
1BF0
1F30
0F30
0330
0F30
0100
0000
0000
0000
ENDCHAR
STARTCHAR U+0959
ENCODING 2393
SWIDTH 667 0
DWIDTH 16 0
BBX 16 18 0 -3
BITMAP
0000
0000
0000
0000
0000
FFFE
7FFF
0630
0FF0
0FF0
0DF0
04F0
0630
02F0
0010
0000
0000
0000
ENDCHAR
STARTCHAR U+095a
ENCODING 2394
SWIDTH 667 0
DWIDTH 16 0
BBX 16 18 0 -3
BITMAP
0000
0000
0000
0000
0000
FFFE
7FFF
0660
0660
0E60
0E60
0E60
0060
01E0
0120
0000
0000
0000
ENDCHAR
STARTCHAR U+095b
ENCODING 2395
SWIDTH 667 0
DWIDTH 16 0
BBX 16 18 0 -3
BITMAP
0000
0000
0000
0000
0000
FFFE
7FFF
0030
13F0
09F0
0CB0
04F0
03F0
01F0
0050
0000
0000
0000
ENDCHAR
STARTCHAR U+095c
ENCODING 2396
SWIDTH 667 0
DWIDTH 16 0
BBX 16 18 0 -3
BITMAP
0000
0000
0000
0000
0000
FFFE
7FFF
01E0
03E0
03C0
0DE0
0470
03E0
01C0
00C0
00C0
0000
0000
ENDCHAR
STARTCHAR U+095d
ENCODING 2397
SWIDTH 667 0
DWIDTH 16 0
BBX 16 18 0 -3
BITMAP
0000
0000
0000
0000
0000
FFFE
7FFF
03C0
07C0
0C00
0CC0
05E0
03F0
01E0
0000
0180
0080
0000
ENDCHAR
STARTCHAR U+095e
ENCODING 2398
SWIDTH 667 0
DWIDTH 16 0
BBX 16 18 0 -3
BITMAP
0000
0000
0000
0000
0000
FFFE
7FFF
1980
19F0
09F8
0798
0398
01B0
0790
0480
0000
0000
0000
ENDCHAR
STARTCHAR U+095f
ENCODING 2399
SWIDTH 667 0
DWIDTH 16 0
BBX 16 18 0 -3
BITMAP
0000
0000
0000
0000
0000
FFFE
7FFF
0360
0E60
0C60
07E0
03E0
0060
0060
0020
0180
0100
0000
ENDCHAR
STARTCHAR U+0960
ENCODING 2400
SWIDTH 667 0
DWIDTH 16 0
BBX 16 18 0 -3
BITMAP
0000
0000
0000
0000
0000
FFFE
7FFF
1B00
3F70
03F0
0FB0
1F78
1B60
0338
0138
0030
001C
0008
ENDCHAR
STARTCHAR U+0961
ENCODING 2401
SWIDTH 667 0
DWIDTH 16 0
BBX 16 18 0 -3
BITMAP
0000
0000
0000
0000
0000
FFFE
7FFF
0060
1CE0
3FF0
3118
1038
18F0
08C0
04F0
00F0
0070
0038
ENDCHAR
STARTCHAR U+0962
ENCODING 2402
SWIDTH 667 0
DWIDTH 16 0
BBX 16 18 0 -3
BITMAP
0000
0000
0000
0000
0000
0000
0000
0000
0000
0000
0000
0000
0280
07C0
0F60
0DC0
0070
0020
ENDCHAR
STARTCHAR U+0963
ENCODING 2403
SWIDTH 667 0
DWIDTH 16 0
BBX 16 18 0 -3
BITMAP
0000
0000
0000
0000
0000
0000
0000
0000
0000
0000
0000
0000
0280
07C0
0F60
0DC0
00F0
00F0
ENDCHAR
STARTCHAR c964
ENCODING 2404
SWIDTH 667 0
DWIDTH 16 0
BBX 16 18 0 -3
BITMAP
0000
0000
0000
0000
0000
0400
0600
0600
0600
0600
0600
0600
0600
0600
0200
0000
0000
0000
ENDCHAR
STARTCHAR U+0965
ENCODING 2405
SWIDTH 667 0
DWIDTH 16 0
BBX 16 18 0 -3
BITMAP
0000
0000
0000
0000
0000
0400
06C0
06C0
06C0
06C0
06C0
06C0
06C0
06C0
0240
0000
0000
0000
ENDCHAR
STARTCHAR U+0966
ENCODING 2406
SWIDTH 667 0
DWIDTH 16 0
BBX 16 18 0 -3
BITMAP
0000
0000
0000
0000
0000
0000
0000
0C00
1E00
3300
1300
0F00
0600
0000
0000
0000
0000
0000
ENDCHAR
STARTCHAR U+0967
ENCODING 2407
SWIDTH 667 0
DWIDTH 16 0
BBX 16 18 0 -3
BITMAP
0000
0000
0000
0000
0000
0100
0380
06C0
06C0
03C0
0180
0700
0600
0200
0100
0080
0080
0000
ENDCHAR
STARTCHAR U+0968
ENCODING 2408
SWIDTH 667 0
DWIDTH 16 0
BBX 16 18 0 -3
BITMAP
0000
0000
0000
0000
0000
0000
1F00
0F80
00C0
01C0
1F80
0F00
0200
0300
0100
0080
0000
0000
ENDCHAR
STARTCHAR U+0969
ENCODING 2409
SWIDTH 667 0
DWIDTH 16 0
BBX 16 18 0 -3
BITMAP
0000
0000
0000
0000
0000
0000
1C00
0E00
1F00
1E00
0300
1700
1E00
0C00
0200
0300
0000
0000
ENDCHAR
STARTCHAR U+096a
ENCODING 2410
SWIDTH 667 0
DWIDTH 16 0
BBX 16 18 0 -3
BITMAP
0000
0000
0000
0000
0000
0040
10E0
0B80
0700
0E00
0F00
0F00
0700
0200
0000
0000
0000
0000
ENDCHAR
STARTCHAR U+096b
ENCODING 2411
SWIDTH 667 0
DWIDTH 16 0
BBX 16 18 0 -3
BITMAP
0000
0000
0000
0000
0000
0000
3300
3300
1300
0F00
0700
0600
1E00
1F00
0080
0000
0000
0000
ENDCHAR
STARTCHAR U+096c
ENCODING 2412
SWIDTH 667 0
DWIDTH 16 0
BBX 16 18 0 -3
BITMAP
0000
0000
0000
0000
0000
0E00
1E00
3000
1E00
0F00
1800
1900
0F80
0700
0180
0080
0000
0000
ENDCHAR
STARTCHAR U+096d
ENCODING 2413
SWIDTH 667 0
DWIDTH 16 0
BBX 16 18 0 -3
BITMAP
0000
0000
0000
0000
0000
0000
3300
3780
3640
1260
19E0
08E0
07C0
0380
0000
0000
0000
0000
ENDCHAR
STARTCHAR U+096e
ENCODING 2414
SWIDTH 667 0
DWIDTH 16 0
BBX 16 18 0 -3
BITMAP
0000
0000
0000
0000
0000
0000
1F80
1FC0
0C00
1800
1800
1980
0FC0
06C0
0000
0000
0000
0000
ENDCHAR
STARTCHAR U+096f
ENCODING 2415
SWIDTH 667 0
DWIDTH 16 0
BBX 16 18 0 -3
BITMAP
0000
0000
0000
0000
0000
1C00
3E00
3300
1E00
0C00
0C00
0400
0200
0100
0180
0180
0000
0000
ENDCHAR
STARTCHAR c970
ENCODING 2416
SWIDTH 667 0
DWIDTH 16 0
BBX 16 18 0 -3
BITMAP
0000
0000
0000
0000
0100
0380
02C0
0380
0000
0000
0000
0000
0000
0000
0000
0000
0000
0000
ENDCHAR
ENDFONT
